<svg id="visual" viewBox="0 0 500 800" width="500" height="800" xmlns="http://www.w3.org/2000/svg" xmlns:xlink="http://www.w3.org/1999/xlink" version="1.1"><rect x="0" y="0" width="500" height="800" fill="#370851"></rect><path d="M0 599L71 477L143 572L214 570L286 488L357 542L429 502L500 524L500 801L429 801L357 801L286 801L214 801L143 801L71 801L0 801Z" fill="#7b4e94"></path><path d="M0 599L71 626L143 553L214 529L286 578L357 569L429 579L500 620L500 801L429 801L357 801L286 801L214 801L143 801L71 801L0 801Z" fill="#6c3f84"></path><path d="M0 660L71 680L143 659L214 682L286 636L357 670L429 617L500 671L500 801L429 801L357 801L286 801L214 801L143 801L71 801L0 801Z" fill="#5d3075"></path><path d="M0 671L71 667L143 711L214 674L286 704L357 680L429 671L500 669L500 801L429 801L357 801L286 801L214 801L143 801L71 801L0 801Z" fill="#4e2166"></path><path d="M0 727L71 734L143 719L214 700L286 737L357 751L429 728L500 755L500 801L429 801L357 801L286 801L214 801L143 801L71 801L0 801Z" fill="#3f1158"></path></svg>