<svg xmlns="http://www.w3.org/2000/svg" version="1.1" xmlns:xlink="http://www.w3.org/1999/xlink" xmlns:svgjs="http://svgjs.dev/svgjs" viewBox="0 0 800 800"><defs><linearGradient x1="50%" y1="0%" x2="50%" y2="100%" id="ffflurry-grad" gradientTransform="rotate(270)"><stop stop-color="hsl(238, 82%, 13%)" stop-opacity="1" offset="0%"></stop><stop stop-color="hsl(265, 55%, 30%)" stop-opacity="1" offset="45%"></stop><stop stop-color="hsl(265, 55%, 60%)" stop-opacity="1" offset="100%"></stop></linearGradient></defs><rect width="100%" height="100%" fill="hsl(238, 82%, 13%)"></rect><g fill="url(#ffflurry-grad)"><rect width="611" height="3" x="-148.5" y="436.5" rx="1.5" transform="rotate(135, 157, 438)" opacity="0.35"></rect><rect width="329" height="3" x="8.5" y="530.5" rx="1.5" transform="rotate(135, 173, 532)" opacity="0.30"></rect><rect width="676" height="3" x="11" y="282.5" rx="1.5" transform="rotate(135, 349, 284)" opacity="0.31"></rect><rect width="452" height="3" x="422" y="60.5" rx="1.5" transform="rotate(135, 648, 62)" opacity="0.27"></rect><rect width="132" height="3" x="217" y="165.5" rx="1.5" transform="rotate(135, 283, 167)" opacity="0.50"></rect><rect width="439" height="3" x="-167.5" y="38.5" rx="1.5" transform="rotate(135, 52, 40)" opacity="0.28"></rect><rect width="324" height="3" x="-120" y="750.5" rx="1.5" transform="rotate(135, 42, 752)" opacity="0.68"></rect><rect width="442" height="3" x="538" y="182.5" rx="1.5" transform="rotate(135, 759, 184)" opacity="0.28"></rect><rect width="346" height="3" x="504" y="253.5" rx="1.5" transform="rotate(135, 677, 255)" opacity="0.19"></rect><rect width="243" height="3" x="351.5" y="666.5" rx="1.5" transform="rotate(135, 473, 668)" opacity="0.40"></rect><rect width="285" height="3" x="196.5" y="759.5" rx="1.5" transform="rotate(135, 339, 761)" opacity="0.46"></rect><rect width="361" height="3" x="254.5" y="397.5" rx="1.5" transform="rotate(135, 435, 399)" opacity="0.89"></rect><rect width="552" height="3" x="345" y="742.5" rx="1.5" transform="rotate(135, 621, 744)" opacity="0.55"></rect><rect width="38" height="3" x="513" y="158.5" rx="1.5" transform="rotate(135, 532, 160)" opacity="0.10"></rect><rect width="206" height="3" x="31" y="755.5" rx="1.5" transform="rotate(135, 134, 757)" opacity="0.44"></rect><rect width="502" height="3" x="-215" y="433.5" rx="1.5" transform="rotate(135, 36, 435)" opacity="0.57"></rect><rect width="562" height="3" x="114" y="496.5" rx="1.5" transform="rotate(135, 395, 498)" opacity="0.61"></rect><rect width="85" height="3" x="224.5" y="331.5" rx="1.5" transform="rotate(135, 267, 333)" opacity="0.92"></rect><rect width="254" height="3" x="504" y="344.5" rx="1.5" transform="rotate(135, 631, 346)" opacity="0.70"></rect><rect width="151" height="3" x="682.5" y="628.5" rx="1.5" transform="rotate(135, 758, 630)" opacity="0.62"></rect><rect width="150" height="3" x="522" y="605.5" rx="1.5" transform="rotate(135, 597, 607)" opacity="0.23"></rect><rect width="474" height="3" x="-182" y="563.5" rx="1.5" transform="rotate(135, 55, 565)" opacity="0.59"></rect><rect width="122" height="3" x="289" y="70.5" rx="1.5" transform="rotate(135, 350, 72)" opacity="0.86"></rect><rect width="591" height="3" x="95.5" y="657.5" rx="1.5" transform="rotate(135, 391, 659)" opacity="0.55"></rect><rect width="257" height="3" x="212.5" y="581.5" rx="1.5" transform="rotate(135, 341, 583)" opacity="0.98"></rect><rect width="99" height="3" x="348.5" y="28.5" rx="1.5" transform="rotate(135, 398, 30)" opacity="0.88"></rect><rect width="239" height="3" x="253.5" y="189.5" rx="1.5" transform="rotate(135, 373, 191)" opacity="0.78"></rect><rect width="505" height="3" x="-5.5" y="587.5" rx="1.5" transform="rotate(135, 247, 589)" opacity="0.08"></rect><rect width="145" height="3" x="168.5" y="420.5" rx="1.5" transform="rotate(135, 241, 422)" opacity="0.13"></rect><rect width="418" height="3" x="-154" y="184.5" rx="1.5" transform="rotate(135, 55, 186)" opacity="0.70"></rect><rect width="190" height="3" x="337" y="245.5" rx="1.5" transform="rotate(135, 432, 247)" opacity="0.73"></rect><rect width="492" height="3" x="447" y="141.5" rx="1.5" transform="rotate(135, 693, 143)" opacity="0.46"></rect><rect width="95" height="3" x="55.5" y="329.5" rx="1.5" transform="rotate(135, 103, 331)" opacity="0.48"></rect><rect width="387" height="3" x="544.5" y="742.5" rx="1.5" transform="rotate(135, 738, 744)" opacity="0.24"></rect><rect width="460" height="3" x="535" y="509.5" rx="1.5" transform="rotate(135, 765, 511)" opacity="0.89"></rect><rect width="59" height="3" x="63.5" y="481.5" rx="1.5" transform="rotate(135, 93, 483)" opacity="0.66"></rect><rect width="107" height="3" x="513.5" y="119.5" rx="1.5" transform="rotate(135, 567, 121)" opacity="0.10"></rect><rect width="86" height="3" x="139" y="355.5" rx="1.5" transform="rotate(135, 182, 357)" opacity="0.16"></rect><rect width="50" height="3" x="255" y="82.5" rx="1.5" transform="rotate(135, 280, 84)" opacity="0.25"></rect><rect width="180" height="3" x="85" y="260.5" rx="1.5" transform="rotate(135, 175, 262)" opacity="0.67"></rect><rect width="377" height="3" x="342.5" y="699.5" rx="1.5" transform="rotate(135, 531, 701)" opacity="0.84"></rect><rect width="212" height="3" x="584" y="404.5" rx="1.5" transform="rotate(135, 690, 406)" opacity="0.71"></rect><rect width="565" height="3" x="-74.5" y="680.5" rx="1.5" transform="rotate(135, 208, 682)" opacity="0.44"></rect><rect width="426" height="3" x="130" y="388.5" rx="1.5" transform="rotate(135, 343, 390)" opacity="0.35"></rect><rect width="520" height="3" x="38" y="688.5" rx="1.5" transform="rotate(135, 298, 690)" opacity="0.29"></rect><rect width="326" height="3" x="318" y="295.5" rx="1.5" transform="rotate(135, 481, 297)" opacity="0.18"></rect><rect width="394" height="3" x="-93" y="677.5" rx="1.5" transform="rotate(135, 104, 679)" opacity="0.94"></rect><rect width="604" height="3" x="129" y="757.5" rx="1.5" transform="rotate(135, 431, 759)" opacity="0.61"></rect><rect width="483" height="3" x="-93.5" y="613.5" rx="1.5" transform="rotate(135, 148, 615)" opacity="0.79"></rect><rect width="300" height="3" x="-118" y="647.5" rx="1.5" transform="rotate(135, 32, 649)" opacity="0.62"></rect><rect width="210" height="3" x="330" y="128.5" rx="1.5" transform="rotate(135, 435, 130)" opacity="0.36"></rect><rect width="83" height="3" x="166.5" y="39.5" rx="1.5" transform="rotate(135, 208, 41)" opacity="0.52"></rect><rect width="149" height="3" x="676.5" y="51.5" rx="1.5" transform="rotate(135, 751, 53)" opacity="0.56"></rect><rect width="736" height="3" x="113" y="575.5" rx="1.5" transform="rotate(135, 481, 577)" opacity="0.82"></rect><rect width="35" height="3" x="211.5" y="763.5" rx="1.5" transform="rotate(135, 229, 765)" opacity="0.32"></rect><rect width="576" height="3" x="289" y="512.5" rx="1.5" transform="rotate(135, 577, 514)" opacity="0.98"></rect><rect width="285" height="3" x="-106.5" y="299.5" rx="1.5" transform="rotate(135, 36, 301)" opacity="0.70"></rect><rect width="402" height="3" x="331" y="769.5" rx="1.5" transform="rotate(135, 532, 771)" opacity="0.21"></rect><rect width="418" height="3" x="212" y="330.5" rx="1.5" transform="rotate(135, 421, 332)" opacity="0.18"></rect><rect width="101" height="3" x="431.5" y="468.5" rx="1.5" transform="rotate(135, 482, 470)" opacity="0.19"></rect><rect width="276" height="3" x="124" y="237.5" rx="1.5" transform="rotate(135, 262, 239)" opacity="0.66"></rect><rect width="485" height="3" x="454.5" y="549.5" rx="1.5" transform="rotate(135, 697, 551)" opacity="0.76"></rect><rect width="497" height="3" x="514.5" y="277.5" rx="1.5" transform="rotate(135, 763, 279)" opacity="0.89"></rect><rect width="297" height="3" x="409.5" y="18.5" rx="1.5" transform="rotate(135, 558, 20)" opacity="0.67"></rect><rect width="378" height="3" x="472" y="480.5" rx="1.5" transform="rotate(135, 661, 482)" opacity="0.91"></rect><rect width="498" height="3" x="-146" y="88.5" rx="1.5" transform="rotate(135, 103, 90)" opacity="0.33"></rect><rect width="225" height="3" x="650.5" y="386.5" rx="1.5" transform="rotate(135, 763, 388)" opacity="0.17"></rect><rect width="494" height="3" x="420" y="654.5" rx="1.5" transform="rotate(135, 667, 656)" opacity="0.17"></rect><rect width="274" height="3" x="34" y="157.5" rx="1.5" transform="rotate(135, 171, 159)" opacity="0.79"></rect><rect width="308" height="3" x="410" y="427.5" rx="1.5" transform="rotate(135, 564, 429)" opacity="1.00"></rect><rect width="434" height="3" x="324" y="305.5" rx="1.5" transform="rotate(135, 541, 307)" opacity="0.54"></rect><rect width="231" height="3" x="474.5" y="237.5" rx="1.5" transform="rotate(135, 590, 239)" opacity="0.46"></rect><rect width="64" height="3" x="468" y="214.5" rx="1.5" transform="rotate(135, 500, 216)" opacity="0.70"></rect><rect width="381" height="3" x="288.5" y="48.5" rx="1.5" transform="rotate(135, 479, 50)" opacity="0.81"></rect><rect width="48" height="3" x="266" y="485.5" rx="1.5" transform="rotate(135, 290, 487)" opacity="0.95"></rect><rect width="175" height="3" x="483.5" y="63.5" rx="1.5" transform="rotate(135, 571, 65)" opacity="0.22"></rect><rect width="360" height="3" x="347" y="367.5" rx="1.5" transform="rotate(135, 527, 369)" opacity="0.86"></rect></g></svg>