<svg xmlns="http://www.w3.org/2000/svg" version="1.1" xmlns:xlink="http://www.w3.org/1999/xlink" xmlns:svgjs="http://svgjs.dev/svgjs" viewBox="0 0 800 800"><defs><linearGradient x1="50%" y1="0%" x2="50%" y2="100%" id="ssscribble-grad"><stop stop-color="hsl(265, 55%, 30%)" stop-opacity="1" offset="0%"></stop><stop stop-color="hsl(265, 55%, 60%)" stop-opacity="1" offset="100%"></stop></linearGradient></defs><g fill="none" stroke-width="1.5" stroke="url(#ssscribble-grad)" stroke-linecap="round"><path d="M774.21 619.2C647.21 650.13 624.98 684.19 709.16 717.09 920.75 754.13 939.4 726.84 735.93 643.03 602.56 580.6 519.57 522.6 494.47 494.47 522.59 519.56 580.57 602.53 642.99 735.9 740.47 930.07 667.18 636.08 619.23 774.14 588.3 941.18 561.96 1052.92 536.52 1055.74 506.29 953.38 467.9 795.43 413.43 653.08 344.7 576.57 253.26 586.68 142.03 661.61 31.94 772.63 -70.43 868.48 -139.09 920.29 -154.52 923.36 -108.2 875.38 -7.03 795.92 105.81 694.31 194.9 593.11 212.35 504.7 136.98 421.57 -9.59 356.11 -168.62 305.8 -264.74 259.4 -248.78 221.84 -121.78 190.91 104.22 148.57 17.32 121.79 -172.51 155.91 -226.34 190.72 -188.47 240.99 -81.33 294.94 61.89 326.74 194.41 330.33 286.73 286.73 330.33 194.41 326.74 61.89 294.94 -81.33 240.99 -188.47 190.72 -226.34 155.91 -172.51 121.79 17.32 148.57 104.22 190.91 -121.78 221.84 -248.78 259.4 -264.74 305.8 -168.62 356.09 -9.59 421.55 136.98 504.67 212.34 593.09 194.89 694.29 105.8 795.9 -7.04 875.36 -108.21 923.36 -154.52 920.3 -139.09 868.51 -70.43 772.66 31.95 661.64 142.04 586.7 253.27 576.57 344.71 653.06 413.44 795.4 467.9 953.36 506.28 1055.74 536.51 1052.95 561.94 941.23 588.28 774.21 619.2Q774.21 619.2 774.21 619.2" opacity="0.55"></path><path d="M742.21 597.21C621.21 625.93 588.46 645.51 650.24 653.88 778.19 659.15 908.99 648.29 989.47 619.29 996.31 586.53 925.7 540.06 807.48 489.85 671.49 458.41 556.01 449.72 480.78 480.76 449.72 555.98 458.4 671.45 489.82 807.45 540.02 925.67 586.49 996.29 619.25 989.47 648.25 909 659.11 778.22 653.85 650.26 645.49 588.45 625.92 621.17 597.2 742.14 568.48 897.9 531.97 1010.33 486.17 1032.22 437.27 959.61 374.17 823.33 295.4 679.16 212.87 572.19 119.1 533.8 24.64 561.42 -51.03 641.22 -100.94 735.86 -107.52 814.73 -69.93 868.64 11.48 879.6 117.58 853.7 205.89 798.71 250.74 726.67 222.85 651.81 121.32 571.06 -25.81 499.82 -164.85 442.28 -237.71 385.51 -210.78 342.36 -89.78 313.63 110.34 282.95 -179.68 365.41 -128.46 388.51 -18.74 370.16 109.93 317.98 226.44 226.44 317.98 109.93 370.16 -18.74 388.51 -128.46 377.78 -185.99 353.03 -173.37 327.93 -87.46 287.45 95.61 278.45 125.06 313.63 -89.78 342.35 -210.78 385.5 -237.71 442.27 -164.85 499.8 -25.81 571.04 121.32 651.79 222.85 726.66 250.73 798.7 205.87 853.69 117.56 879.61 11.46 868.66 -69.95 814.76 -107.54 735.89 -100.94 641.25 -51.02 561.44 24.67 533.81 119.14 572.19 212.91 679.14 295.44 823.31 374.21 959.59 437.31 1032.23 486.2 1010.36 531.99 897.95 568.5 742.21 597.21Q742.21 597.21 742.21 597.21" opacity="0.55"></path><path d="M710.15 461.07C595.74 487.58 554.48 499.01 595.21 496 701.16 492.7 825.18 475.48 922.13 447.95 967.62 426.09 944.89 404.41 867.31 394.39 753.51 409.1 633.39 452.42 530.43 530.43 452.42 633.39 409.1 753.51 394.39 867.31 404.41 944.89 426.09 967.62 447.95 922.13 475.48 825.18 492.7 701.16 496 595.21 499.01 554.48 487.58 595.74 461.07 710.15 434.56 854.38 394.23 965.5 341.22 1003.17 287.93 959.05 222.48 849.32 149.01 714.8 81.21 592.22 15.88 515.72 -34.99 495.62 -61.14 529.7 -55.88 597.26 -12.62 673.38 55.59 749.17 144.28 800.34 230.47 822.06 280.45 820.49 279.41 794.56 214.49 754.4 98.1 702.78 -41 649.53 -157.18 601.88 -208.14 552.3 -172.25 512.86 -57.84 486.35 144.62 453.67 169.56 447.26 7.15 455.45 -95.99 449.67 -148.72 431.96 -141.21 392.67 -79.53 330.11 19.45 240.88 130.32 130.35 240.85 19.48 330.09 -79.51 392.66 -141.2 431.95 -148.72 449.67 -96.01 455.46 7.13 447.27 169.54 453.67 144.66 486.34 -57.78 512.84 -172.22 552.28 -208.15 601.86 -157.2 649.51 -41.03 702.77 98.07 754.38 214.47 794.55 279.4 820.49 280.45 822.06 230.48 800.36 144.29 749.19 55.6 673.4 -12.62 597.28 -55.88 529.72 -61.15 495.63 -35 515.71 15.87 592.2 81.2 714.77 149 849.29 222.47 959.03 287.92 1003.17 341.22 965.52 394.22 854.43 434.55 710.21 461.06Q710.15 461.07 710.15 461.07" opacity="0.73"></path><path d="M678.21 289.55C570.87 313.85 523.06 325.87 544.61 327.75 627.1 331.49 737.27 329.27 839.35 326.88 911.76 334.36 931.37 352.09 899.25 388.03 824.62 443.69 725.3 522.69 622.01 621.97 522.72 725.26 443.72 824.59 388.05 899.23 352.1 931.36 334.36 911.76 326.86 839.37 329.25 737.3 331.47 627.12 327.71 544.62 325.83 523.05 313.81 570.83 289.51 678.14 265.21 810.65 229.78 918.57 185.83 968.49 143.76 950.35 97.33 869.63 52.83 753.99 18.22 630.69 -4.05 530.94 -5.55 471.57 12.65 457.36 56.77 482.56 124.21 531.46 195.65 597.86 266.15 659.75 315.48 706.55 322.3 742.98 280.89 758.15 190.68 755.5 70.79 742.57 -53.21 719.44 -145.07 692.17 -176 662.02 -133.12 633.36 -25.78 609.06 106.7 584.76 219.53 565.96 278.81 550.29 270.02 531.73 203.12 510.66 105.28 481.47 -0.19 442.02 -78.14 386.84 -112.2 312.96 -101.09 228.71 -47.06 131.93 33.69 33.68 131.94 -47.06 228.72 -101.09 312.97 -112.2 386.85 -78.14 442.03 -0.2 481.48 105.28 510.66 203.12 531.72 270.02 550.28 278.8 565.95 219.52 584.74 106.69 609.04 -25.79 633.34 -133.13 662 -176.01 692.16 -145.08 719.43 -53.21 742.58 70.78 755.51 190.68 758.18 280.89 743.02 322.29 706.59 315.47 659.79 266.13 597.9 195.62 531.5 124.17 482.59 56.74 457.37 12.63 471.57 -5.57 530.92 -4.06 630.67 18.22 753.96 52.85 869.61 97.35 950.35 143.78 968.51 185.87 918.61 229.82 810.7 265.25 678.21 289.55Q678.21 289.55 678.21 289.55" opacity="0.87"></path><path d="M646.15 181.97C546.47 204.07 494.21 222.51 499 239.22 557.98 258.36 649.17 280.44 746.1 309.88 832.05 347.68 882.94 398.95 892.31 466.11 863.11 542.08 801.37 629.91 721.52 721.52 629.91 801.37 542.08 863.11 466.11 892.31 398.95 882.94 347.68 832.05 309.88 746.1 280.44 649.17 258.36 557.98 239.22 499 222.51 494.21 204.07 546.47 181.97 646.15 159.88 766.77 135.19 869.74 110.23 928.31 87.71 932.6 69.6 881 60.76 790.47 60.27 679.47 75.17 572.88 108.27 488.81 150.2 434.74 206.31 415.44 268.96 424.43 319.87 458.32 355.41 502.74 361.61 546.67 329.24 593.11 258.54 627.81 156.39 648.4 43.27 664.17 -60.48 666.99 -127.99 659.3 -141.31 649.51 -93.52 632.86 6.15 610.77 126.76 588.68 234.22 562.2 301.31 530.33 314.13 496.36 275.1 453.35 200.76 399.3 105.95 340.43 19.17 269.35 -41.88 188.86 -72.95 110.89 -66.06 34.74 -28.12 -28.1 34.72 -66.05 110.86 -72.95 188.83 -41.9 269.32 19.15 340.4 105.93 399.27 200.73 453.33 275.08 496.34 314.13 530.31 301.33 562.18 234.25 588.66 126.81 610.76 6.21 632.85 -93.49 649.51 -141.3 659.31 -128 667 -60.51 664.18 43.24 648.41 156.36 627.83 258.52 593.13 329.23 546.69 361.6 502.77 355.41 458.34 319.87 424.44 268.97 415.44 206.31 434.74 150.19 488.79 108.27 572.85 75.17 679.44 60.27 790.44 60.76 880.98 69.59 932.6 87.71 928.32 110.23 869.78 135.18 766.81 159.87 646.21 181.96Q646.15 181.97 646.15 181.97" opacity="0.84"></path><path d="M614.15 200.6C522.61 220.48 467.89 245.46 458.66 276.09 495.34 308.32 564.55 348.94 648.09 399.21 734.64 453.03 802.78 517.33 842.84 589.81 854.73 660.46 835.56 731.06 792.78 792.78 731.06 835.56 660.46 854.73 589.81 842.84 517.33 802.78 453.03 734.64 399.21 648.09 348.94 564.55 308.32 495.34 276.09 458.66 245.46 467.89 220.48 522.61 200.6 614.15 180.71 722.73 166.87 819.18 160.01 882.81 154.74 905.21 159.19 880.66 175 818.2 194.37 729.15 225.93 630.83 267.76 539.15 307.78 461.22 349.83 407.1 385.49 377.31 402.21 370.17 397.8 380.32 365.21 399.8 304.45 429.51 218.48 457.95 117.36 479.94 -21.01 509.47 -78.72 514.87 38.15 490.46 146.73 470.58 247.21 440.84 318.51 401.9 348.58 362.43 335.35 313.22 287.47 255.76 212.99 199.32 132.5 138.13 61.52 77.78 -10.97 8.3 8.28 -10.98 77.75 61.5 138.11 132.48 199.29 212.97 255.73 287.45 313.19 335.34 362.41 348.59 401.88 318.53 440.82 247.24 470.56 146.78 490.45 38.21 514.88 -78.7 509.49 -21.04 479.96 117.33 457.97 218.46 429.53 304.44 399.82 365.2 380.33 397.8 370.18 402.21 377.3 385.49 407.09 349.83 461.2 307.77 539.12 267.76 630.81 225.92 729.13 194.37 818.18 175 880.65 159.19 905.21 154.74 882.83 160 819.21 166.86 722.78 180.7 614.21 200.59Q614.15 200.6 614.15 200.6" opacity="0.93"></path><path d="M582.15 334.64C499.22 352.31 444.04 379.12 423.83 414.26 440.61 449.66 487.06 493.56 551.7 544.44 752.16 693.67 693.67 752.16 544.44 551.7 493.56 487.06 449.66 440.61 414.26 423.83 379.12 444.04 352.31 499.22 334.64 582.15 316.97 678.6 309.27 767.12 311.08 832.36 313.14 868.03 324.89 866.64 345.15 831.92 381.45 689.01 429.62 520.55 445.84 397.4 391.56 331.31 258.54 320.62 79.93 327.42 -25.91 340.63 -38.57 339.5 70.15 317.78 166.6 300.11 258.7 273.7 330.76 240.09 373.24 207.23 381.92 168.87 360.15 128.14 243.15 60.09 112.18 15.59 35.35 35.34 15.59 112.16 60.07 243.13 128.12 360.14 168.85 381.91 207.21 373.26 240.07 330.79 273.68 258.73 300.1 166.65 317.77 70.21 339.5 -38.54 340.64 -25.93 327.43 79.9 320.63 258.52 331.3 391.55 397.38 445.84 520.52 429.62 688.99 381.45 831.91 345.14 866.63 324.88 868.03 313.14 832.39 311.07 767.15 309.26 678.65 316.96 582.21 334.63Q582.15 334.64 582.15 334.64" opacity="0.79"></path><path d="M550.21 506.51C423.21 537.44 396.88 596.19 462.98 667.48 588.21 725.08 698.93 765.05 755.6 755.61 765.05 698.95 725.1 588.23 667.51 463 596.23 396.88 537.49 423.18 506.57 550.14 475.64 717.18 475.45 824.14 493.13 827.68 497.11 739.99 488.8 602.2 438.82 472 341.61 362.48 198.08 296.2 50.19 260.19 -38.58 241.41 -24.78 223.62 102.21 192.69 328.96 141.2 297.35 77.21 155.18 155.19 77.2 297.35 141.21 328.96 192.71 102.2 223.64 -24.79 241.43 -38.58 260.19 50.18 296.19 198.09 362.46 341.62 471.97 438.83 602.18 488.8 739.98 497.09 827.68 493.09 824.16 475.4 717.23 475.58 550.21 506.51Q550.21 506.51 550.21 506.51" opacity="0.46"></path><path d="M518.15 616.73C403.75 643.24 359.68 675.45 387.43 701.23 473.12 714.34 570.65 699.63 644.78 644.78 699.63 570.65 714.34 473.12 701.23 387.43 675.45 359.68 643.24 403.75 616.73 518.15 590.22 662.38 571.93 768.76 551.76 803.19 518.94 768.44 462.85 678.53 373.25 572.27 264.37 459.55 138.72 368.58 33.61 305.39 -13.56 251.66 19.75 214.12 134.15 187.61 278.38 161.1 395.5 148.14 449.37 155.92 434.05 173.17 372.26 222.77 300.75 300.74 222.77 372.25 173.17 434.04 155.92 449.37 148.13 395.52 161.09 278.42 187.6 134.21 214.1 19.77 251.65 -13.57 305.37 33.59 368.55 138.71 459.53 264.36 572.24 373.24 678.51 462.84 768.42 518.93 803.19 551.76 768.78 571.92 662.42 590.21 518.21 616.72Q518.15 616.73 518.15 616.73" opacity="0.36"></path><path d="M486.15 601.49C386.48 623.58 332.49 632.03 329.23 622.8 372.67 607.33 438.38 566.22 501.58 501.58 566.22 438.38 607.33 372.67 622.8 329.23 632.03 332.49 623.58 386.48 601.49 486.15 579.39 606.77 545.75 705.34 498.24 757.97 444.49 765.53 368.9 726.35 275.31 661.69 183.15 578.69 94.01 498.33 34.38 434.45 21.45 371.65 66.48 327.55 166.15 305.46 286.77 283.37 394.3 285.38 463.12 309.89 486.87 335.49 471.12 381.37 435.41 435.41 381.37 471.12 335.49 486.87 309.89 463.12 285.37 394.32 283.36 286.81 305.45 166.21 327.53 66.5 371.63 21.45 434.42 34.36 498.3 93.99 578.66 183.13 661.66 275.3 726.34 368.89 765.52 444.48 757.98 498.23 705.37 545.75 606.81 579.39 486.21 601.48Q486.15 601.49 486.15 601.49" opacity="0.54"></path><path d="M454.15 469.61C310.92 481.86 481.86 310.92 469.61 454.15 434.26 642.92 324.07 733.07 180.8 706.99 77.51 613.64 60.97 513.38 198.15 478.04 386.92 442.69 505.72 478.94 525.97 525.97 478.94 505.72 442.69 386.92 478.04 198.15 513.38 60.97 613.64 77.51 706.99 180.79 733.07 324.07 642.95 434.25 454.21 469.6Q454.15 469.61 454.15 469.61" opacity="0.69"></path><path d="M422.15 297.43C307.75 323.94 258.25 298.96 260.24 260.24 298.96 258.25 323.94 307.75 297.43 422.15 270.92 566.38 197.95 663.15 124.48 688.02 87.75 673.94 115.75 631.94 230.15 605.44 374.38 578.93 492.64 572.93 552.25 552.25 572.93 492.64 578.93 374.38 605.44 230.15 631.94 115.75 673.94 87.75 688.02 124.48 663.15 197.95 566.38 270.92 422.15 297.43Q422.15 297.43 422.15 297.43" opacity="0.28"></path><path d="M390.15 184.63C252.98 219.97 219.97 252.98 184.63 390.15 149.28 578.92 124.98 649.25 262.15 613.91 450.92 578.56 578.56 450.92 613.91 262.15 649.25 124.98 578.92 149.28 390.15 184.63Q390.15 184.63 390.15 184.63" opacity="0.40"></path></g></svg>